{"title":"Les Miserables 2012 BluRay 1080p DTS X264 - alrmothe","uid":8237611,"size":11761786533,"categoryP":"video","categoryS":"hd___movies","magnet":"?xt=urn:btih:1de6335d893c94b25c66c344dddd9002337f5fb8&amp;dn=Les+Miserables+2012+BluRay+1080p+DTS+X264+-+alrmothe&amp;tr=udp%3A%2F%2Ftracker.openbittorrent.com%3A80&amp;tr=udp%3A%2F%2Fopen.demonii.com%3A1337&amp;tr=udp%3A%2F%2Ftracker.coppersurfer.tk%3A6969&amp;tr=udp%3A%2F%2Fexodus.desync.com%3A6969","seeders":2,"leechers":0,"uploader":".alrmothe","files":13,"time":1362878101,"description":"***********************************************************\n\nLes Miserables 2012  BluRay 1080p DTS X264 - alrmothe\n\n***********************************************************\n\nTiTLE:Les Miserables \nYEAR: 2012\nGENRE :Drama  Musical  Romance  \nimdb URL :http://www.imdb.com/title/tt1707386/\nFormat: Matroska\nFormat version: Version 4 / Version 2\nFile size:  10.9 GiB\nDuration:  2h 37mn\nOverall bit rate: 9913 Kbps\nSub:English,Arabic,French,Italian \n\n***********************************************************\n\nVideo\nFormat : AVC \nFormat/Info : Advanced Video Codec \nFormat profile : &lt;a class=&quot;__cf_email__&quot; href=&quot;/cdn-cgi/l/email-protection&quot; data-cfemail=&quot;cb83a2aca38b87ffe5fa&quot;&gt;[email&amp;#160;protected]&lt;/a&gt;&lt;script cf-hash='f9e31' type=&quot;text/javascript&quot;&gt;\n/* &lt;![CDATA[ */!function(){try{var t=&quot;currentScript&quot;in document?document.currentScript:function(){for(var t=document.getElementsByTagName(&quot;script&quot;),e=t.length;e--;)if(t[e].getAttribute(&quot;cf-hash&quot;))return t[e]}();if(t&amp;&amp;t.previousSibling){var e,r,n,i,c=t.previousSibling,a=c.getAttribute(&quot;data-cfemail&quot;);if(a){for(e=&quot;&quot;,r=parseInt(a.substr(0,2),16),n=2;a.length-n;n+=2)i=parseInt(a.substr(n,2),16)^r,e+=String.fromCharCode(i);e=document.createTextNode(e),c.parentNode.replaceChild(e,c)}}}catch(u){}}();/* ]]&gt; */&lt;/script&gt; \nFormat settings, CABAC : Yes \nFormat settings, ReFrames : 4 frames  \nCodec ID : V_MPEG4/ISO/AVC  \nBit rate : 8403 Kbps \nWidth : 1 920 pixels \nHeight : 1 040 pixels \nDisplay aspect ratio : 16:9 \nFrame rate : 23.976 fps \nColor space : YUV \nChroma subsampling : 4:2:0 \nBit depth : 8 bits \nScan type : Progressive \nBits/(Pixel*Frame) : 0.176 \nStream size: 9.05 GiB (83%)\nTitle: Les Miserables 2012  BluRay 1080p DTS X264 - alrmothe\n\n\nAudio #1\nFormat : DTS \nFormat/Info : Digital Theater Systems \nCodec ID : A_DTS  \nBit rate mode : Constant \nBit rate : 1509 Kbps \nChannel(s) : 6 channels \nChannel positions : Front: L C R, Side: L R, LFE \nSampling rate : 48.0 KHz \nBit depth : 24 bits \nStream size : 1.66 GiB (15%) \nTitle :DTS 1509 \nLanguage : English\n\n\n\n\n***********************************************************\n\nScreenshots &lt;a href=&quot;\nhttp://img13.imageshack.us/img13/640/vlcsnap2013030914h09m41.png&quot; rel=&quot;nofollow&quot; target=&quot;_NEW&quot;&gt;\nhttp://img13.imageshack.us/img13/640/vlcsnap2013030914h09m41.png&lt;/a&gt; &lt;a href=&quot;\nhttp://img715.imageshack.us/img715/4436/vlcsnap2013030914h08m41.png&quot; rel=&quot;nofollow&quot; target=&quot;_NEW&quot;&gt;\nhttp://img715.imageshack.us/img715/4436/vlcsnap2013030914h08m41.png&lt;/a&gt; &lt;a href=&quot;\nhttp://img585.imageshack.us/img585/1228/vlcsnap2013030914h18m54.png&quot; rel=&quot;nofollow&quot; target=&quot;_NEW&quot;&gt;\nhttp://img585.imageshack.us/img585/1228/vlcsnap2013030914h18m54.png&lt;/a&gt; &lt;a href=&quot;\nhttp://img13.imageshack.us/img13/9853/vlcsnap2013030914h13m25.png&quot; rel=&quot;nofollow&quot; target=&quot;_NEW&quot;&gt;\nhttp://img13.imageshack.us/img13/9853/vlcsnap2013030914h13m25.png&lt;/a&gt; &lt;a href=&quot;\nhttp://img585.imageshack.us/img585/1228/vlcsnap2013030914h18m54.png&quot; rel=&quot;nofollow&quot; target=&quot;_NEW&quot;&gt;\nhttp://img585.imageshack.us/img585/1228/vlcsnap2013030914h18m54.png&lt;/a&gt; &lt;a href=&quot;\nhttp://img15.imageshack.us/img15/3002/vlcsnap2013030914h23m32.png&quot; rel=&quot;nofollow&quot; target=&quot;_NEW&quot;&gt;\nhttp://img15.imageshack.us/img15/3002/vlcsnap2013030914h23m32.png&lt;/a&gt; &lt;a href=&quot;\nhttp://img6.imageshack.us/img6/4160/lesmiserables2012bluray.jpg&quot; rel=&quot;nofollow&quot; target=&quot;_NEW&quot;&gt;\nhttp://img6.imageshack.us/img6/4160/lesmiserables2012bluray.jpg&lt;/a&gt;","torrent":{"xt":"urn:btih:1de6335d893c94b25c66c344dddd9002337f5fb8","amp;dn":"Les+Miserables+2012+BluRay+1080p+DTS+X264+-+alrmothe","amp;tr":["udp%3A%2F%2Ftracker.openbittorrent.com%3A80","udp%3A%2F%2Fopen.demonii.com%3A1337","udp%3A%2F%2Ftracker.coppersurfer.tk%3A6969","udp%3A%2F%2Fexodus.desync.com%3A6969"],"infoHash":"1de6335d893c94b25c66c344dddd9002337f5fb8","infoHashBuffer":{"type":"Buffer","data":[29,230,51,93,137,60,148,178,92,102,195,68,221,221,144,2,51,127,95,184]},"announce":[],"urlList":[]}}